<svg xmlns="http://www.w3.org/2000/svg" width="132" height="44" viewBox="0 0 132 44" role="img" aria-label="YouTube">
<title>YouTube</title>
<defs>
  <linearGradient id="shine" x1="0" y1="0" x2="1" y2="0">
    <stop offset="0" stop-color="#fff" stop-opacity="0"/>
    <stop offset=".5" stop-color="#fff" stop-opacity=".09"/>
    <stop offset="1" stop-color="#fff" stop-opacity="0"/>
  </linearGradient>
  <clipPath id="pill"><rect x="1" y="1" width="130" height="42" rx="21.0"/></clipPath>
</defs>
<rect x="1" y="1" width="130" height="42" rx="21.0" fill="#161b22" stroke="#30363d"/>
<rect x="1" y="1" width="130" height="42" rx="21.0" fill="none" stroke="#FF0033" stroke-opacity="0">
  <animate attributeName="stroke-opacity" values="0;0;.7;0;0" keyTimes="0;.30;.40;.55;1" dur="5s" begin="0.6s" repeatCount="indefinite"/>
</rect>
<g clip-path="url(#pill)">
  <rect x="-60" y="0" width="60" height="44" fill="url(#shine)">
    <animate attributeName="x" values="-60;-60;132;132" keyTimes="0;.28;.55;1" dur="5s" begin="0.6s" repeatCount="indefinite"/>
  </rect>
</g>
<g transform="translate(16 12.0) scale(0.8333333333333334)"><path fill="#FF0033" d="M23.498 6.186a3.016 3.016 0 0 0-2.122-2.136C19.505 3.545 12 3.545 12 3.545s-7.505 0-9.377.505A3.017 3.017 0 0 0 .502 6.186C0 8.07 0 12 0 12s0 3.93.502 5.814a3.016 3.016 0 0 0 2.122 2.136c1.871.505 9.376.505 9.376.505s7.505 0 9.377-.505a3.015 3.015 0 0 0 2.122-2.136C24 15.93 24 12 24 12s0-3.93-.502-5.814zM9.545 15.568V8.432L15.818 12l-6.273 3.568z"/></g>
<text x="46" y="27.0" font-family="ui-monospace,SFMono-Regular,Menlo,Consolas,'Liberation Mono',monospace" font-size="14" fill="#c9d1d9">YouTube</text>
</svg>
